<svg id="SvgjsSvg1006" width="288" height="288" xmlns="http://www.w3.org/2000/svg" version="1.1" xmlns:xlink="http://www.w3.org/1999/xlink" xmlns:svgjs="http://svgjs.com/svgjs"><defs id="SvgjsDefs1007"></defs><g id="SvgjsG1008" transform="matrix(1,0,0,1,0,0)"><svg xmlns="http://www.w3.org/2000/svg" width="288" height="288" viewBox="0 0 64 64"><path fill="#ffffff" fill-rule="evenodd" d="M57.042 1.15l5.809 5.808a4 4 0 0 1 0 5.657L43.465 32l19.386 19.385a4 4 0 0 1 0 5.657l-5.809 5.809a4 4 0 0 1-5.657 0L32 43.465 12.615 62.851a4 4 0 0 1-5.657 0l-5.809-5.809a4 4 0 0 1 0-5.657L20.535 32 1.149 12.615a4 4 0 0 1 0-5.657l5.809-5.809a4 4 0 0 1 5.657 0L32 20.535 51.385 1.149a4 4 0 0 1 5.657 0z" class="color565C65 svgShape"></path></svg></g></svg>